<?xml version="1.0" encoding="UTF-8"?>
<svg width="95px" height="78px" viewBox="0 0 95 78" version="1.1" xmlns="http://www.w3.org/2000/svg" xmlns:xlink="http://www.w3.org/1999/xlink">
    <!-- Generator: Sketch 45.2 (43514) - http://www.bohemiancoding.com/sketch -->
    <title>QC Crown Copy</title>
    <desc>Created with Sketch.</desc>
    <defs></defs>
    <g id="Page-1" stroke="none" stroke-width="1" fill="none" fill-rule="evenodd">
        <g id="Artboard-2" transform="translate(-3.000000, -11.000000)" fill="#000000">
            <g id="QC-Crown-Copy" transform="translate(3.000000, 11.000000)">
                <path d="M81.8291895,48.4187182 L71.8072078,62.7315914 L83.7173397,62.7315914 L83.7173397,62.5787147 L84.0191074,62.5787147 C84.245863,62.2631304 84.4285136,62.0126451 84.5670591,61.8272588 C87.5761647,57.8008085 89.1800156,55.3358439 89.573821,54.6456688 C90.2053252,53.5389077 92.2618762,50.1497556 92.8947247,48.6990641 C92.944737,48.5844198 92.9601465,48.4938606 92.9409532,48.4273865 C94.2522305,46.091898 95,43.3974969 95,40.5284449 C95,31.6046839 87.7658624,24.3705463 78.8421014,24.3705463 C77.1846865,24.3705463 75.5855566,24.6200939 74.080235,25.0836657 C70.6098871,20.9418141 65.1949979,18.2779097 59.1109862,18.2779097 C54.7878984,18.2779097 50.8026526,19.6229233 47.6128266,21.8874685 C44.4230006,19.6229233 40.4377548,18.2779097 36.114667,18.2779097 C30.0900289,18.2779097 24.7215171,20.890074 21.2475735,24.9628287 C19.6473609,24.4321634 17.9361776,24.1448931 16.1578986,24.1448931 C7.23413762,24.1448931 0,31.3790307 0,40.3027917 C0,43.378889 0.859589372,46.2542184 2.35166667,48.7016786 C2.35648317,48.7141659 2.36175273,48.7269686 2.36747533,48.7400866 C3.00032387,50.1907782 5.0568748,53.5799303 5.68837905,54.6866914 C6.08218443,55.3768664 7.68603536,57.841831 10.6951409,61.8682814 C10.8336865,62.0536676 11.016337,62.304153 11.2430926,62.6197373 L11.5083135,62.6197373 L11.5083135,62.7315914 L23.4069087,62.7315914 L13.3070031,48.3074314 C11.8283863,46.7679252 10.2983784,43.4539363 10.2983784,40.5415059 C10.2983784,36.9260854 11.9164795,35.6623484 14.0645186,34.6110613 C14.6175001,34.3404227 16.5652616,34.39322 16.6870491,34.5032968 C16.774545,34.5823794 16.7329157,35.0683237 16.6870491,35.2265161 C16.1943909,36.9256777 16.2103452,39.0256829 16.6069673,41.1817102 C16.8438106,42.4691839 17.6036558,44.5601061 18.2368286,45.9983569 L29.9224159,62.6871051 L29.8588829,62.7315914 L42.0003994,62.7315914 L28.6911516,43.8459878 C27.4067424,42.558814 26.556571,40.8413414 26.4162793,38.6258434 C26.03305,32.5738553 30.2943392,28.2066508 35.6532067,28.2066508 C38.3834746,28.2066508 41.2351999,29.2405765 42.6135393,31.3887958 C42.8066851,31.6898243 42.8946519,32.4401279 42.8961463,32.7423357 C42.8994365,33.4077184 42.880639,34.0393729 42.8535836,34.67113 L42.9730741,34.6110042 L42.9730741,62.7315914 L52.1258907,62.7315914 L52.1258907,34.6110042 L52.2453813,34.67113 C52.2183258,34.0393729 52.1995283,33.4077184 52.2028186,32.7423357 C52.2043129,32.4401279 52.2922798,31.6898243 52.4854255,31.3887958 C53.8637649,29.2405765 56.7154902,28.2066508 59.4457582,28.2066508 C64.8046256,28.2066508 69.0659149,32.5738553 68.6826855,38.6258434 C68.5423938,40.8413414 67.6922224,42.558814 66.4078132,43.8459878 L53.0985654,62.7315914 L65.2605509,62.7315914 L76.899364,46.1096437 C77.5325368,44.6713929 78.2923821,42.5804708 78.5292253,41.292997 C78.9258474,39.1369697 78.9418017,37.0369646 78.4491435,35.3378029 C78.4032769,35.1796105 78.3616477,34.6936662 78.4491435,34.6145837 C78.570931,34.5045069 80.5186926,34.4517096 81.071674,34.7223482 C83.2197131,35.7736353 84.8378142,37.0373722 84.8378142,40.6527928 C84.8378142,43.5652231 83.3078064,46.8792121 81.8291895,48.4187182 Z" id="Combined-Shape-Copy"></path>
                <circle id="top-dot-copy" cx="47.5" cy="8.01068884" r="8.01068884"></circle>
                <rect id="Rectangle-Copy" x="11.0570071" y="68.1472684" width="72.8859857" height="9.47743468" rx="4.73871734"></rect>
            </g>
        </g>
    </g>
</svg>